<?xml version="1.0" encoding="utf-8"?>
<!-- Generator: Adobe Illustrator 25.2.1, SVG Export Plug-In . SVG Version: 6.00 Build 0)  -->
<svg version="1.1" id="Layer_1" xmlns="http://www.w3.org/2000/svg" xmlns:xlink="http://www.w3.org/1999/xlink" x="0px" y="0px"
	 viewBox="0 0 685.6 176.5" style="enable-background:new 0 0 685.6 176.5;" xml:space="preserve">
<style type="text/css">
	.st0{fill:#3B444D;}
	.st1{fill:#00A5E3;}
	.st2{fill:url(#SVGID_1_);}
	.st3{fill:url(#SVGID_2_);}
	.st4{fill:url(#SVGID_3_);}
	.st5{fill:url(#SVGID_4_);}
	.st6{fill:url(#SVGID_5_);}
	.st7{fill:url(#SVGID_6_);}
	.st8{fill:url(#SVGID_7_);}
</style>
<g>
	<path class="st0" d="M106.4,51h14.4c8.1,0,16.2,0,22.5,5.6c3.7,3.3,6.2,8.6,6.2,13.7c0,9.2-5.9,12.7-8.2,13.9
		C146.3,86,154,90,154,102.4c0,8.8-4.7,14.2-9.1,17.4c-5.5,3.9-14.1,4.3-18.9,4.3h-19.6V51z M120,79.5h4.5c3.2,0,11.7,0,11.7-7.9
		c0-4.4-2.8-7.9-10.5-7.9H120V79.5z M120,111.5h6.8c2.7,0,13.7,0,13.7-9.6c0-3-1.5-9.8-13.4-9.8H120V111.5z"/>
	<path class="st0" d="M159.6,51h13.2V63h-13.2V51z M159.6,69.3h13.2v54.9h-13.2V69.3z"/>
	<path class="st0" d="M178.1,96.8c0-16.6,13.5-29.4,29.3-29.4c15.5,0,29.1,12.4,29.1,29.2c0,18-13.9,29.4-29.1,29.4
		C191.1,125.9,178.1,112.5,178.1,96.8z M223.3,96.9c0-10-7.7-17.4-15.9-17.4c-6.8,0-16.1,5.8-16.1,17.3c0,10.4,7.8,17.1,16.1,17.1
		C217,113.9,223.3,105.6,223.3,96.9z"/>
	<path class="st0" d="M242.7,51h16.6c18,0,25.8,4.9,30.1,8.5c6.9,5.9,12.1,16.8,12.1,28.3c0,13.2-6.8,25.8-17.5,31.7
		c-6.7,3.8-16.1,4.7-24.3,4.7h-16.9V51z M256.2,111.5h2.9c7.3,0,12.1-0.5,17.8-3.6c7.2-4,11-12.4,11-20.2c0-7.1-3.1-13.8-7.8-18
		c-5.6-5.1-12.8-6.1-21.3-6.1h-2.6V111.5z"/>
	<path class="st0" d="M308.5,51h13.2V63h-13.2V51z M308.5,69.3h13.2v54.9h-13.2V69.3z"/>
	<path class="st0" d="M351.8,84.2c-0.9-4.4-3.9-4.7-5.2-4.7c-3.3,0-5.1,2.5-5.1,4.7c0,3.2,2.3,3.9,9.3,6.1
		c6.8,2.1,15.3,5.3,15.3,16.4c0,12.4-9.8,19.2-19.2,19.2c-5.4,0-12.2-1.9-16.4-7.2c-3.4-4.2-3.9-8.5-4.2-11.9h13.5
		c0.6,2.5,1.8,7,7.2,7c4.3,0,6-3.3,6-5.6c0-4-3-5-12.4-8.2c-6.2-2.1-12.3-6.7-12.3-15.7c0-10.7,9.6-17,18.4-17
		c8.2,0,17.4,5.9,17.9,16.8H351.8z"/>
	<path class="st0" d="M425.9,106.3c-4.5,12.3-14.6,19.7-27.5,19.7c-14,0-29.2-11.3-29.2-29.5c0-16.8,13.9-29.1,29.1-29.1
		c6.9,0,22,3.2,27.6,20.1H411c-1.6-2.8-4.6-8-12.8-8c-8,0-15.9,5.9-15.9,17.2c0,9.4,6.6,17.2,16.5,17.2c4.4,0,8.7-2.1,12.2-7.6
		H425.9z"/>
	<path class="st0" d="M428.8,96.8c0-16.6,13.6-29.4,29.3-29.4c15.5,0,29.1,12.4,29.1,29.2c0,18-13.8,29.4-29.1,29.4
		C441.8,125.9,428.8,112.5,428.8,96.8z M474,96.9c0-10-7.7-17.4-15.9-17.4c-6.8,0-16.1,5.8-16.1,17.3c0,10.4,7.8,17.1,16.1,17.1
		C467.7,113.9,474,105.6,474,96.9z"/>
	<path class="st0" d="M484.5,69.3h14.3l13.3,36.4h0.3l12.4-36.4h14.4L517,124.1h-10.3L484.5,69.3z"/>
	<path class="st0" d="M552.1,102.6c0.6,3.6,5.7,11.3,15.1,11.3c5.8,0,10.2-2.5,12.7-7h13.9c-3.2,9.9-13.7,19.1-26.5,19.1
		c-16.3,0-29-13.1-29-29.1c0-15.5,12-29.8,28.9-29.8c17.4,0,28.4,15,28.4,28.9c0,2.6-0.4,4.9-0.8,6.6H552.1z M582.1,92
		c-1.5-8.8-8.3-12.9-14.8-12.9c-4.8,0-13.1,2.7-15.5,12.9H582.1z"/>
	<path class="st0" d="M602.2,69.3h12.1v4.8h0.2c2.5-3.6,4.9-6.7,11.8-6.7h1.1v12.8c-12,0.5-12,9.9-12,13.2v30.9h-13.2V69.3z"/>
	<path class="st0" d="M650,119l-20.1-49.8h15l12.5,35.2l13.3-35.2h14.9L654,142.5h-14.1L650,119z"/>
</g>
<g>
	<path class="st1" d="M115.4,155.9h3.1l8.4,19.1h-3.5l-1.9-4.6h-9l-2,4.6h-3.4L115.4,155.9z M120.2,167.5l-3.3-7.6l-3.3,7.6H120.2z"
		/>
	<path class="st1" d="M143.5,156.1h8.5c2.2,0,3.9,0.6,5,1.7c0.8,0.8,1.3,1.9,1.3,3.1v0.1c0,2.3-1.3,3.5-2.7,4.2
		c2.2,0.8,3.8,2,3.8,4.6v0.1c0,3.4-2.8,5.2-7,5.2h-8.8V156.1z M154.9,161.4c0-1.5-1.2-2.4-3.3-2.4h-4.8v5h4.6
		C153.5,164.1,154.9,163.2,154.9,161.4L154.9,161.4z M152,166.9h-5.3v5.2h5.5c2.3,0,3.7-0.9,3.7-2.6v-0.1
		C156,167.9,154.7,166.9,152,166.9z"/>
	<path class="st1" d="M165.8,156.1h3.3v19h-3.3V156.1z"/>
	<path class="st1" d="M176,165.6L176,165.6c0-5.4,4.1-9.9,10-9.9c5.8,0,9.9,4.4,9.9,9.8v0.1c0,5.3-4.1,9.8-10,9.8S176,171,176,165.6
		z M192.4,165.6L192.4,165.6c0-3.7-2.7-6.8-6.5-6.8s-6.4,3-6.4,6.7v0.1c0,3.7,2.7,6.7,6.5,6.7C189.7,172.3,192.4,169.3,192.4,165.6z
		"/>
	<path class="st1" d="M202.5,156.1h3.1l10.2,13.1v-13.1h3.3v19h-2.8l-10.5-13.5v13.5h-3.3V156.1z"/>
	<path class="st1" d="M233.2,155.9h3.1l8.4,19.1h-3.5l-1.9-4.6h-9l-2,4.6h-3.4L233.2,155.9z M238,167.5l-3.3-7.6l-3.3,7.6H238z"/>
	<path class="st1" d="M250.5,156.1h3.1l10.2,13.1v-13.1h3.3v19h-2.8l-10.5-13.5v13.5h-3.3V156.1z"/>
	<path class="st1" d="M273.7,165.6L273.7,165.6c0-5.4,4.1-9.9,10-9.9c5.8,0,9.9,4.4,9.9,9.8v0.1c0,5.3-4.1,9.8-10,9.8
		S273.7,171,273.7,165.6z M290.1,165.6L290.1,165.6c0-3.7-2.7-6.8-6.5-6.8s-6.4,3-6.4,6.7v0.1c0,3.7,2.7,6.7,6.5,6.7
		C287.5,172.3,290.1,169.3,290.1,165.6z"/>
	<path class="st1" d="M310.1,165.6L310.1,165.6c0-5.4,4.1-9.9,9.8-9.9c3.3,0,5.3,0.9,7.3,2.6l-2.1,2.5c-1.5-1.2-2.9-2-5.3-2
		c-3.5,0-6.2,3-6.2,6.7v0.1c0,3.9,2.6,6.8,6.5,6.8c1.8,0,3.4-0.6,4.6-1.4v-3.5h-4.9v-2.9h8.1v8c-1.9,1.6-4.6,3-7.9,3
		C314,175.4,310.1,171.2,310.1,165.6z"/>
	<path class="st1" d="M334.8,156.1h14.1v3h-10.7v4.9h9.5v3h-9.5v5.1H349v3h-14.2V156.1z"/>
	<path class="st1" d="M355.6,156.1h3.1l10.2,13.1v-13.1h3.3v19h-2.8l-10.5-13.5v13.5h-3.3V156.1z"/>
	<path class="st1" d="M378.8,165.6L378.8,165.6c0-5.4,4.1-9.9,10-9.9c5.8,0,9.9,4.4,9.9,9.8v0.1c0,5.3-4.1,9.8-10,9.8
		S378.8,171,378.8,165.6z M395.1,165.6L395.1,165.6c0-3.7-2.7-6.8-6.5-6.8s-6.4,3-6.4,6.7v0.1c0,3.7,2.7,6.7,6.5,6.7
		C392.5,172.3,395.1,169.3,395.1,165.6z"/>
	<path class="st1" d="M405.3,156.1h3.6l5.8,9l5.8-9h3.6v19h-3.3v-13.6l-6,9h-0.1l-5.9-8.9v13.6h-3.3V156.1z"/>
	<path class="st1" d="M431.6,156.1h3.3v19h-3.3V156.1z"/>
	<path class="st1" d="M441.8,165.6L441.8,165.6c0-5.5,4-9.9,9.8-9.9c3.5,0,5.6,1.2,7.5,3l-2.1,2.5c-1.5-1.4-3.1-2.3-5.3-2.3
		c-3.6,0-6.2,3-6.2,6.7v0.1c0,3.7,2.6,6.7,6.3,6.7c2.3,0,3.8-0.9,5.5-2.4l2.1,2.2c-2,2.1-4.2,3.4-7.7,3.4
		C445.9,175.4,441.8,171.1,441.8,165.6z"/>
	<path class="st1" d="M464,172.3l2-2.4c1.8,1.6,3.7,2.5,6,2.5c2.1,0,3.4-1,3.4-2.4v-0.1c0-1.4-0.8-2.1-4.3-2.9c-4-1-6.3-2.2-6.3-5.7
		v-0.1c0-3.3,2.7-5.5,6.5-5.5c2.8,0,5,0.8,6.9,2.4l-1.8,2.5c-1.7-1.3-3.4-2-5.2-2c-2,0-3.1,1-3.1,2.3v0.1c0,1.5,0.9,2.1,4.5,3
		c4,1,6.1,2.4,6.1,5.6v0.1c0,3.6-2.8,5.7-6.8,5.7C469,175.3,466.2,174.3,464,172.3z"/>
	<path class="st1" d="M495.1,165.6L495.1,165.6c0-5.5,4-9.9,9.8-9.9c3.5,0,5.6,1.2,7.5,3l-2.1,2.5c-1.5-1.4-3.1-2.3-5.3-2.3
		c-3.6,0-6.2,3-6.2,6.7v0.1c0,3.7,2.6,6.7,6.3,6.7c2.3,0,3.8-0.9,5.5-2.4l2.1,2.2c-2,2.1-4.2,3.4-7.7,3.4
		C499.2,175.4,495.1,171.1,495.1,165.6z"/>
	<path class="st1" d="M517.2,165.6L517.2,165.6c0-5.4,4.1-9.9,10-9.9c5.8,0,9.9,4.4,9.9,9.8v0.1c0,5.3-4.1,9.8-10,9.8
		S517.2,171,517.2,165.6z M533.5,165.6L533.5,165.6c0-3.7-2.7-6.8-6.5-6.8s-6.4,3-6.4,6.7v0.1c0,3.7,2.7,6.7,6.5,6.7
		C530.9,172.3,533.5,169.3,533.5,165.6z"/>
	<path class="st1" d="M543.7,156.1h3.6l5.8,9l5.8-9h3.6v19H559v-13.6l-6,9h-0.1l-5.9-8.9v13.6h-3.3V156.1z"/>
	<path class="st1" d="M569.8,156.1h7.5c4.5,0,7.2,2.5,7.2,6.4v0.1c0,4.3-3.4,6.5-7.6,6.5h-3.8v6.1h-3.3V156.1z M577,166
		c2.5,0,4.1-1.4,4.1-3.4v-0.1c0-2.2-1.6-3.4-4.1-3.4h-3.9v6.8H577z"/>
	<path class="st1" d="M595.4,155.9h3.1l8.4,19.1h-3.5l-1.9-4.6h-9l-2,4.6H587L595.4,155.9z M600.1,167.5l-3.3-7.6l-3.3,7.6H600.1z"
		/>
	<path class="st1" d="M612.7,156.1h3.1l10.2,13.1v-13.1h3.3v19h-2.8l-10.5-13.5v13.5h-3.3V156.1z"/>
	<path class="st1" d="M642.3,167.6l-7.5-11.5h4l5.3,8.4l5.4-8.4h3.8l-7.5,11.4v7.6h-3.4V167.6z"/>
</g>
<g>
	<g>
		
			<linearGradient id="SVGID_1_" gradientUnits="userSpaceOnUse" x1="40.0487" y1="-1215.4519" x2="64.1204" y2="-1215.4519" gradientTransform="matrix(1 0 0 -1 0 -1169.0519)">
			<stop  offset="0" style="stop-color:#4A545F"/>
			<stop  offset="1" style="stop-color:#1D3B46"/>
		</linearGradient>
		<path class="st2" d="M43.5,42.7c-0.1,0.3-0.1,0.5-0.2,0.8c-1.2,5.3-2.5,11.4-3.3,17c6.7-3.9,13.7-7.9,20.5-12
			c0.5-1.8,0.9-3.6,1.4-5.6c0.9-3.9,1.7-7.5,2.3-10.6C57.3,35.7,50.3,39.2,43.5,42.7z"/>
	</g>
	
		<linearGradient id="SVGID_2_" gradientUnits="userSpaceOnUse" x1="5.3155" y1="-1250.6519" x2="20.7141" y2="-1250.6519" gradientTransform="matrix(1 0 0 -1 0 -1169.0519)">
		<stop  offset="0" style="stop-color:#3A73A6"/>
		<stop  offset="0.46" style="stop-color:#009CD9"/>
		<stop  offset="0.6" style="stop-color:#00A8D7"/>
		<stop  offset="0.9" style="stop-color:#09ADD8"/>
	</linearGradient>
	<path class="st3" d="M18.6,61.4c-3.8,4.4-6.2,9.2-7.4,14.6c-2.6,11.2,2.1,20.5,9.5,28.8C10.5,96.3,3.3,87.1,5.8,76.4
		c1.5-6.6,6.5-12.6,13.1-18L18.6,61.4z"/>
	<g>
		
			<linearGradient id="SVGID_3_" gradientUnits="userSpaceOnUse" x1="85.6141" y1="-1185.6019" x2="103.3141" y2="-1185.6019" gradientTransform="matrix(1 0 0 -1 0 -1169.0519)">
			<stop  offset="0" style="stop-color:#466470"/>
			<stop  offset="1" style="stop-color:#14313B"/>
		</linearGradient>
		<path class="st4" d="M97.3,9.9c-3.2,3.5-7.2,6.7-11.7,9.8c0.5,3.2,0.6,6.7,0.3,10.4c8.5-7.8,15-16.6,17.3-26.8l0.1-0.3L97.3,9.9z"
			/>
	</g>
	<g>
		<path class="st0" d="M11.9,79.5c2.7-2.4,5.7-4.8,9-7.1c-1-2.8-1.5-5.8-1.7-9.1c-3.3,4-5.6,8.4-6.7,13.2
			C12.1,77.6,12,78.6,11.9,79.5z"/>
	</g>
	<g>
		
			<linearGradient id="SVGID_4_" gradientUnits="userSpaceOnUse" x1="0" y1="-1295.5519" x2="67.84" y2="-1295.5519" gradientTransform="matrix(1 0 0 -1 0 -1169.0519)">
			<stop  offset="0" style="stop-color:#103646"/>
			<stop  offset="1" style="stop-color:#555F6B"/>
		</linearGradient>
		<path class="st5" d="M67.3,158.9C74.9,126-2.5,109.4,5.1,76.5L0.5,96.2c-7.4,32.2,67.6,44.5,63.6,76l-0.9,4.3L67.3,158.9z"/>
	</g>
	
		<linearGradient id="SVGID_5_" gradientUnits="userSpaceOnUse" x1="52.5569" y1="-1255.7518" x2="52.5569" y2="-1169.0519" gradientTransform="matrix(1 0 0 -1 0 -1169.0519)">
		<stop  offset="0" style="stop-color:#3A73A6"/>
		<stop  offset="0.46" style="stop-color:#009CD9"/>
		<stop  offset="0.6" style="stop-color:#00A8D7"/>
		<stop  offset="0.9" style="stop-color:#09ADD8"/>
	</linearGradient>
	<path class="st6" d="M62.6,0C77,0,88.9,13.2,83.2,37.8l-1.7,7.4C73.6,79,53,86.7,42.4,86.7c-16.7,0-25.7-15.7-20.5-38.1L24.4,38
		C30.3,12.8,48.2,0,62.6,0z M44.3,78c7.9,0,13-9.3,19-34.9c5.9-25.3,5.2-34.9-2.6-34.9c-7.9,0-12.9,9.3-18.8,34.9
		C36,68.4,36.7,78,44.3,78z"/>
	
		<linearGradient id="SVGID_6_" gradientUnits="userSpaceOnUse" x1="47.9641" y1="-1298.7518" x2="47.9641" y2="-1259.3519" gradientTransform="matrix(1 0 0 -1 0 -1169.0519)">
		<stop  offset="0.46" style="stop-color:#009CD9"/>
		<stop  offset="0.6" style="stop-color:#00A8D7"/>
		<stop  offset="0.9" style="stop-color:#09ADD8"/>
	</linearGradient>
	<path class="st7" d="M45.1,102l-4.5,17.8c4.5,3.2,9,6.5,13,9.9l9.9-39.4h-2.8l-28.3,10.5l0.5,5.7L45.1,102z"/>
	
		<linearGradient id="SVGID_7_" gradientUnits="userSpaceOnUse" x1="35.2641" y1="-1344.4519" x2="35.2641" y2="-1307.9041" gradientTransform="matrix(1 0 0 -1 0 -1169.0519)">
		<stop  offset="0" style="stop-color:#3B74A7"/>
		<stop  offset="0.9" style="stop-color:#09ADD8"/>
	</linearGradient>
	<path class="st8" d="M49.1,148c-4-3.2-8.6-6.2-13.2-9.2L28.3,169h-10l-1.6,6.4h35.5l1.6-6.4h-10L49.1,148z"/>
</g>
</svg>
